# File created by Blade
# Date/Time:  Wed Jan 21 17:47:40 2015
#---------------------------------------------------------
:version 1.10
:name HOM
:units
  mass 1.0
  length 1.000000
  angle deg
:documentation
     Acclaim Skeleton File
:root
   axis xyz
   order TX TY TZ RX RY RZ
   position 0.000000 0.000000 0.000000
   orientation 0 0 0
:bonedata
   begin
      id 1
      name Spine_dum
      direction 0.000000 1.000000 0.000000
      length 7.067664
      axis 0.0 0.0 0.0 xyz
   end
   begin
      id 2
      name LeftUpLeg_dum
      direction 1.000000 0.000000 0.000000
      length 4.013002
      axis 0.0 0.0 0.0 xyz
   end
   begin
      id 3
      name RightUpLeg_dum
      direction -1.000000 0.000000 0.000000
      length 4.013002
      axis 0.0 0.0 0.0 xyz
   end
   begin
      id 4
      name Spine
      direction 0.000000 1.000000 0.000000
      length 0.000000
      axis 0.0 0.0 0.0 xyz
      dof rx ry rz
   end
   begin
      id 5
      name Spine_dum1
      direction 0.000000 1.000000 0.000000
      length 15.039886
      axis 0.0 0.0 0.0 xyz
   end
   begin
      id 6
      name Spine_dum2
      direction 0.000000 1.000000 0.000000
      length 10.530368
      axis 0.0 0.0 0.0 xyz
   end
   begin
      id 7
      name Spine_dum3
      direction 0.000000 1.000000 0.000000
      length 10.530368
      axis 0.0 0.0 0.0 xyz
   end
   begin
      id 8
      name Head
      direction 0.000000 1.000000 0.000000
      length 4.527550
      axis 0.0 0.0 0.0 xyz
      dof rx ry rz
   end
   begin
      id 9
      name LeftShoulder
      direction 1.000000 0.000000 0.000000
      length 7.028855
      axis 0.0 0.0 -90.0 xyz
      dof rx ry rz
   end
   begin
      id 10
      name LeftArm
      direction 1.000000 0.000000 0.000000
      length 10.797705
      axis 0.0 0.0 -90.0 xyz
      dof rx ry rz
   end
   begin
      id 11
      name LeftForeArm
      direction 1.000000 0.000000 0.000000
      length 7.907442
      axis 0.0 0.0 -90.0 xyz
      dof ry rz rx
   end
   begin
      id 12
      name LeftHand
      direction 0.000000 0.000000 0.000000
      length 0.000000
      axis 0.0 0.0 -90.0 xyz
      dof rx ry rz
   end
   begin
      id 13
      name LeftHand_dum1
      direction 0.000000 0.000000 0.000000
      length 0.000000
      axis 0.0 0.0 -90.0 xyz
   end
   begin
      id 14
      name LeftHand_dum2
      direction 1.000000 0.000000 0.000000
      length 3.937000
      axis 0.0 0.0 -90.0 xyz
   end
   begin
      id 15
      name LeftHandThumb1
      direction 0.000000 0.000000 1.000000
      length 3.937000
      axis 0.0 0.0 -90.0 xyz
      dof rx rz ry
   end
   begin
      id 16
      name RightShoulder
      direction -1.000000 0.000000 0.000000
      length 7.028855
      axis 0.0 0.0 90.0 xyz
      dof rx ry rz
   end
   begin
      id 17
      name RightArm
      direction -1.000000 0.000000 0.000000
      length 10.797705
      axis 0.0 0.0 90.0 xyz
      dof rx ry rz
   end
   begin
      id 18
      name RightForeArm
      direction -1.000000 0.000000 0.000000
      length 7.907442
      axis 0.0 0.0 90.0 xyz
      dof ry rz rx
   end
   begin
      id 19
      name RightHand
      direction 0.000000 0.000000 0.000000
      length 0.000000
      axis 0.0 0.0 90.0 xyz
      dof rx ry rz
   end
   begin
      id 20
      name RightHand_dum1
      direction 0.000000 0.000000 0.000000
      length 0.000000
      axis 0.0 0.0 90.0 xyz
   end
   begin
      id 21
      name RightHand_dum2
      direction -1.000000 0.000000 0.000000
      length 3.937000
      axis 0.0 0.0 90.0 xyz
   end
   begin
      id 22
      name RightHandThumb1
      direction 0.000000 0.000000 1.000000
      length 3.937000
      axis 0.0 0.0 90.0 xyz
      dof rx rz ry
   end
   begin
      id 23
      name LeftUpLeg
      direction 0.000000 -1.000000 0.000000
      length 16.899758
      axis 0.0 0.0 0.0 xyz
      dof rx ry rz
   end
   begin
      id 24
      name LeftLeg
      direction 0.000000 -1.000000 0.000000
      length 17.389183
      axis 0.0 0.0 0.0 xyz
      dof rx ry rz
   end
   begin
      id 25
      name LeftFoot
      direction 0.000000 -0.258819 0.965926
      length 4.924528
      axis 15.0 0.0 0.0 xyz
      dof rx ry rz
   end
   begin
      id 26
      name LeftToeBase
      direction 0.000000 0.000000 1.000000
      length 2.952750
      axis 0.0 0.0 0.0 xyz
      dof rx ry rz
   end
   begin
      id 27
      name RightUpLeg
      direction 0.000000 -1.000000 0.000000
      length 16.899758
      axis 0.0 0.0 0.0 xyz
      dof rx ry rz
   end
   begin
      id 28
      name RightLeg
      direction 0.000000 -1.000000 0.000000
      length 17.389183
      axis 0.0 0.0 0.0 xyz
      dof rx ry rz
   end
   begin
      id 29
      name RightFoot
      direction 0.000000 -0.258819 0.965926
      length 4.924528
      axis 15.0 0.0 0.0 xyz
      dof rx ry rz
   end
   begin
      id 30
      name RightToeBase
      direction 0.000000 0.000000 1.000000
      length 2.952750
      axis 0.0 0.0 0.0 xyz
      dof rx ry rz
   end
:hierarchy
   begin
      root Spine_dum LeftUpLeg_dum RightUpLeg_dum
      Spine_dum Spine
      LeftUpLeg_dum LeftUpLeg
      RightUpLeg_dum RightUpLeg
      Spine Spine_dum1 Spine_dum2 Spine_dum3
      Spine_dum1 Head
      Spine_dum2 LeftShoulder
      Spine_dum3 RightShoulder
      LeftShoulder LeftArm
      LeftArm LeftForeArm
      LeftForeArm LeftHand
      LeftHand LeftHand_dum1 LeftHand_dum2
      LeftHand_dum1 LeftHandThumb1
      RightShoulder RightArm
      RightArm RightForeArm
      RightForeArm RightHand
      RightHand RightHand_dum1 RightHand_dum2
      RightHand_dum1 RightHandThumb1
      LeftUpLeg LeftLeg
      LeftLeg LeftFoot
      LeftFoot LeftToeBase
      RightUpLeg RightLeg
      RightLeg RightFoot
      RightFoot RightToeBase
   end

# File created by Blade
# Date/Time:  Wed Jan 21 17:47:32 2015
# Frame Rate: 120.000 fps
#------------------------------------------------------
:FULLY-SPECIFIED
:DEGREES
178
root 15.912539 35.551925 -20.315383 -174.970563 48.727020 -178.310827
Spine 1.618196 -2.111870 -4.738349
Head 32.686713 -20.379124 2.784671
LeftShoulder -12.599689 -19.421360 -1.268706
LeftArm -20.198838 5.287995 -73.365653
LeftForeArm -2.966060 -0.000000 4.430448
LeftHand -1.612394 -0.000000 8.086408
LeftHandThumb1 -26.253704 0.000000 33.147579
RightShoulder -13.234255 -17.185081 10.536583
RightArm 9.926788 -6.639125 72.645137
RightForeArm -21.117285 0.000000 15.990632
RightHand -0.639097 -0.000000 6.942203
RightHandThumb1 -24.326973 -0.000000 -32.862282
LeftUpLeg 0.523366 30.941496 -1.370761
LeftLeg 9.613607 -0.000000 -0.000000
LeftFoot -31.804205 39.784306 -23.804361
LeftToeBase 20.107436 -0.000000 -0.000000
RightUpLeg -16.538580 -8.153431 4.995981
RightLeg 10.911574 -0.000000 -0.000000
RightFoot -17.661612 -32.155501 16.231875
RightToeBase 20.894572 -0.000000 -0.000000
179
root 15.937428 35.570684 -20.311453 -174.996463 49.443764 -178.718902
Spine 1.435885 -2.110694 -5.059551
Head 32.638138 -20.257919 2.719009
LeftShoulder -12.506388 -19.422733 -1.240291
LeftArm -20.330407 5.225315 -73.136114
LeftForeArm -2.933084 0.000000 4.298195
LeftHand -1.575464 0.000000 7.830262
LeftHandThumb1 -26.253704 0.000000 33.147579
RightShoulder -13.073935 -17.170169 10.381600
RightArm 10.121832 -7.161015 72.719163
RightForeArm -21.145082 -0.000000 15.997223
RightHand -0.462166 -0.000000 7.109252
RightHandThumb1 -24.326973 -0.000000 -32.862282
LeftUpLeg 0.152161 30.567712 -1.751524
LeftLeg 10.043135 -0.000000 -0.000000
LeftFoot -31.469839 40.042707 -23.853060
LeftToeBase 19.923706 -0.000000 -0.000000
RightUpLeg -16.824425 -8.080713 4.850803
RightLeg 10.867539 -0.000000 -0.000000
RightFoot -17.437783 -31.621009 16.050287
RightToeBase 20.946169 -0.000000 -0.000000
180
root 15.962658 35.593464 -20.306743 -175.051373 50.174394 -179.202087
Spine 1.202132 -2.077726 -5.452181
Head 32.617244 -20.147051 2.692395
LeftShoulder -12.371619 -19.484549 -1.186441
LeftArm -20.556607 5.091940 -72.875974
LeftForeArm -2.873848 -0.000000 4.188482
LeftHand -1.474253 -0.000000 7.540784
LeftHandThumb1 -26.253704 0.000000 33.147579
RightShoulder -12.925766 -17.138940 10.300174
RightArm 10.256154 -7.720025 72.749730
RightForeArm -21.099284 0.000000 16.092802
RightHand -0.438419 -0.000000 7.036275
RightHandThumb1 -24.326973 -0.000000 -32.862282
LeftUpLeg -0.225897 30.208739 -2.184479
LeftLeg 10.417391 -0.000000 -0.000000
LeftFoot -31.282125 40.108033 -24.134839
LeftToeBase 19.865572 -0.000000 -0.000000
RightUpLeg -17.141420 -7.991582 4.681566
RightLeg 10.807281 -0.000000 -0.000000
RightFoot -17.221312 -31.129269 15.864299
RightToeBase 20.945258 -0.000000 -0.000000
181
root 15.989945 35.616590 -20.296521 -175.075574 50.819302 -179.610921
Spine 1.019216 -2.081406 -5.764801
Head 32.551399 -20.064856 2.638256
LeftShoulder -12.257739 -19.555426 -1.137441
LeftArm -20.737882 5.117029 -72.696588
LeftForeArm -2.864905 -0.000000 4.081987
LeftHand -1.370520 -0.000000 7.380527
LeftHandThumb1 -26.253704 0.000000 33.147579
RightShoulder -12.845458 -17.102717 10.194537
RightArm 10.454687 -8.368111 72.795416
RightForeArm -20.938051 -0.000000 16.110871
RightHand -0.315887 -0.000000 6.794421
RightHandThumb1 -24.326973 -0.000000 -32.862282
LeftUpLeg -0.544807 29.789170 -2.517773
LeftLeg 10.736273 -0.000000 -0.000000
LeftFoot -30.834724 40.230861 -24.034337
LeftToeBase 19.715089 -0.000000 -0.000000
RightUpLeg -17.374709 -7.970590 4.570790
RightLeg 10.635198 -0.000000 -0.000000
RightFoot -16.955366 -30.621470 15.663837
RightToeBase 20.950309 -0.000000 -0.000000
182
root 16.020928 35.638933 -20.298483 -175.295930 51.575821 -180.052784
Spine 1.021224 -1.975193 -6.100155
Head 32.453267 -19.979356 2.590430
LeftShoulder -12.136501 -19.553802 -1.102242
LeftArm -20.856693 5.150906 -72.555517
LeftForeArm -3.052085 0.000000 4.057529
LeftHand -1.433322 -0.000000 7.103309
LeftHandThumb1 -26.253704 0.000000 33.147579
RightShoulder -12.709840 -17.041063 10.083820
RightArm 10.590615 -9.083363 72.796871
RightForeArm -20.776619 0.000000 16.310513
RightHand -0.405936 -0.000000 6.393752
RightHandThumb1 -24.326973 -0.000000 -32.862282
LeftUpLeg -0.552426 29.523966 -2.746552
LeftLeg 10.927491 -0.000000 -0.000000
LeftFoot -30.374019 40.133600 -23.920055
LeftToeBase 19.771782 -0.000000 -0.000000
RightUpLeg -17.437768 -7.847195 4.400357
RightLeg 10.493230 -0.000000 -0.000000
RightFoot -16.712053 -30.083196 15.450461
RightToeBase 20.856114 -0.000000 -0.000000
183
root 16.048995 35.663504 -20.300037 -175.471531 52.287920 -180.553338
Spine 0.880764 -1.868648 -6.460305
Head 32.441417 -19.843189 2.525020
LeftShoulder -12.025972 -19.569237 -1.042318
LeftArm -21.006729 5.048501 -72.347847
LeftForeArm -2.764295 -0.000000 4.058468
LeftHand -1.463431 0.000000 6.698160
LeftHandThumb1 -26.253704 0.000000 33.147579
RightShoulder -12.542467 -16.936538 9.917601
RightArm 10.655352 -9.343920 72.976178
RightForeArm -21.118304 -0.000000 16.287591
RightHand -0.138154 -0.000000 6.589611
RightHandThumb1 -24.326973 -0.000000 -32.862282
LeftUpLeg -0.641718 29.141774 -3.039599
LeftLeg 11.088641 -0.000000 -0.000000
LeftFoot -29.986370 39.905215 -23.902665
LeftToeBase 19.970609 -0.000000 -0.000000
RightUpLeg -17.602572 -7.711351 4.214872
RightLeg 10.350522 -0.000000 -0.000000
RightFoot -16.495728 -29.652893 15.269075
RightToeBase 20.868109 -0.000000 -0.000000
184
root 16.078219 35.685160 -20.289861 -175.617443 52.904050 -180.951134
Spine 0.843959 -1.822949 -6.751533
Head 32.324017 -19.698798 2.500225
LeftShoulder -11.907608 -19.532710 -0.980565
LeftArm -21.036956 4.973504 -72.202032
LeftForeArm -2.584896 -0.000000 4.024420
LeftHand -1.387725 -0.000000 6.703795
LeftHandThumb1 -26.253704 0.000000 33.147579
RightShoulder -12.464697 -16.881498 9.770421
RightArm 10.860611 -9.772803 73.115306
RightForeArm -21.186342 -0.000000 16.311645
RightHand 0.039581 -0.000000 6.521148
RightHandThumb1 -24.326973 -0.000000 -32.862282
LeftUpLeg -0.657211 28.662400 -3.190889
LeftLeg 11.253122 -0.000000 -0.000000
LeftFoot -29.279861 39.572610 -23.405279
LeftToeBase 19.787567 -0.000000 -0.000000
RightUpLeg -17.682844 -7.493931 4.087752
RightLeg 10.135658 -0.000000 -0.000000
RightFoot -16.315169 -29.421152 15.225208
RightToeBase 20.993771 -0.000000 -0.000000
185
root 16.113204 35.703874 -20.299318 -175.696642 53.674364 -181.266416
Spine 0.695204 -1.685541 -6.918173
Head 32.358473 -19.499865 2.321688
LeftShoulder -11.882042 -19.590977 -0.924797
LeftArm -21.289068 4.801450 -72.014138
LeftForeArm -2.390487 -0.000000 4.113375
LeftHand -1.418166 0.000000 6.337536
LeftHandThumb1 -26.253704 0.000000 33.147579
RightShoulder -12.307094 -16.915396 9.531654
RightArm 10.991206 -10.204240 73.228804
RightForeArm -21.060947 0.000000 16.433633
RightHand 0.111305 0.000000 6.621179
RightHandThumb1 -24.326973 -0.000000 -32.862282
LeftUpLeg -0.555304 28.355101 -3.267419
LeftLeg 11.321443 -0.000000 -0.000000
LeftFoot -28.710931 38.919719 -23.012208
LeftToeBase 19.624868 -0.000000 -0.000000
RightUpLeg -17.738677 -7.146152 3.979714
RightLeg 9.901817 -0.000000 -0.000000
RightFoot -16.126476 -29.142867 15.120993
RightToeBase 20.814067 -0.000000 -0.000000
186
root 16.143288 35.720800 -20.296890 -175.732008 54.401929 -181.562471
Spine 0.541420 -1.567621 -7.089443
Head 32.357909 -19.306268 2.143538
LeftShoulder -11.813335 -19.627721 -0.858684
LeftArm -21.518174 4.627769 -71.859009
LeftForeArm -2.328001 -0.000000 4.250908
LeftHand -1.486773 -0.000000 6.091064
LeftHandThumb1 -26.253704 0.000000 33.147579
RightShoulder -12.204292 -17.036248 9.328313
RightArm 11.278769 -10.677587 73.329536
RightForeArm -21.029361 0.000000 16.486650
RightHand 0.292294 0.000000 6.567767
RightHandThumb1 -24.326973 -0.000000 -32.862282
LeftUpLeg -0.501928 27.925654 -3.329927
LeftLeg 11.403558 -0.000000 -0.000000
LeftFoot -28.304659 38.099191 -22.731748
LeftToeBase 19.555945 -0.000000 -0.000000
RightUpLeg -17.846989 -6.774936 3.895245
RightLeg 9.686959 -0.000000 -0.000000
RightFoot -15.927961 -28.898430 15.130338
RightToeBase 20.731891 -0.000000 -0.000000
187
root 16.175139 35.732623 -20.291948 -175.693532 55.013286 -181.728140
Spine 0.434973 -1.557450 -7.144959
Head 32.321821 -19.043481 1.993727
LeftShoulder -11.749554 -19.525822 -0.827019
LeftArm -21.579390 4.332812 -71.707102
LeftForeArm -2.206345 -0.000000 4.333528
LeftHand -1.459005 -0.000000 5.853740
LeftHandThumb1 -26.253704 0.000000 33.147579
RightShoulder -12.054283 -17.048348 9.051918
RightArm 11.432377 -11.157334 73.444868
RightForeArm -20.972710 -0.000000 16.599676
RightHand 0.389954 -0.000000 6.602521
RightHandThumb1 -24.326973 -0.000000 -32.862282
LeftUpLeg -0.417613 27.306419 -3.262536
LeftLeg 11.565811 -0.000000 -0.000000
LeftFoot -27.705756 37.152880 -22.081083
LeftToeBase 19.075425 -0.000000 -0.000000
RightUpLeg -17.925139 -6.487702 3.883280
RightLeg 9.488183 -0.000000 -0.000000
RightFoot -15.734615 -28.657657 15.008280
RightToeBase 20.828911 -0.000000 -0.000000
